<svg width="375" height="667" viewBox="0 0 375 667" fill="none" xmlns="http://www.w3.org/2000/svg">
<rect width="375" height="667" fill="white"/>
<path fill-rule="evenodd" clip-rule="evenodd" d="M177.352 87.9293C205.686 58.554 256.844 110.762 299.229 170.401C341.613 230.039 370.512 258.378 333.493 296.758C296.474 335.138 217.459 350.399 177.352 296.758C137.246 243.118 149.019 117.305 177.352 87.9293Z" fill="url(#paint0_linear_0_69)"/>
<path fill-rule="evenodd" clip-rule="evenodd" d="M30.991 167.565C6.62814 144.072 49.9279 101.654 99.39 66.5114C148.852 31.3683 172.355 7.40723 204.186 38.1012C236.017 68.7953 248.674 134.31 204.186 167.565C159.699 200.819 55.3539 191.057 30.991 167.565Z" fill="#F4F4FC"/>
<path d="M186 45.3742L195.348 36L204.695 45.3742L214.043 36L223.391 45.3742L232.738 36" stroke="#D3629D" stroke-width="2"/>
<path d="M186 53.7742L195.348 44.4L204.695 53.7742L214.043 44.4L223.391 53.7742L232.738 44.4" stroke="#D3629D" stroke-width="2"/>
<path d="M186 62.1741L195.348 52.8L204.695 62.1741L214.043 52.8L223.391 62.1741L232.738 52.8" stroke="#D3629D" stroke-width="2"/>
<path d="M186 70.5742L195.348 61.2L204.695 70.5742L214.043 61.2L223.391 70.5742L232.738 61.2" stroke="#D3629D" stroke-width="2"/>
<path fill-rule="evenodd" clip-rule="evenodd" d="M254.401 295.833C255.175 295.833 255.802 295.199 255.802 294.417C255.802 293.634 255.175 293 254.401 293C253.627 293 253 293.634 253 294.417C253 295.199 253.627 295.833 254.401 295.833ZM254.401 306.222C255.175 306.222 255.802 305.588 255.802 304.806C255.802 304.023 255.175 303.389 254.401 303.389C253.627 303.389 253 304.023 253 304.806C253 305.588 253.627 306.222 254.401 306.222ZM264.676 306.222C265.45 306.222 266.077 305.588 266.077 304.806C266.077 304.023 265.45 303.389 264.676 303.389C263.902 303.389 263.275 304.023 263.275 304.806C263.275 305.588 263.902 306.222 264.676 306.222ZM276.352 304.806C276.352 305.588 275.724 306.222 274.951 306.222C274.177 306.222 273.549 305.588 273.549 304.806C273.549 304.023 274.177 303.389 274.951 303.389C275.724 303.389 276.352 304.023 276.352 304.806ZM285.225 306.222C285.999 306.222 286.626 305.588 286.626 304.806C286.626 304.023 285.999 303.389 285.225 303.389C284.451 303.389 283.824 304.023 283.824 304.806C283.824 305.588 284.451 306.222 285.225 306.222ZM296.901 304.806C296.901 305.588 296.274 306.222 295.5 306.222C294.726 306.222 294.099 305.588 294.099 304.806C294.099 304.023 294.726 303.389 295.5 303.389C296.274 303.389 296.901 304.023 296.901 304.806ZM305.775 306.222C306.549 306.222 307.176 305.588 307.176 304.806C307.176 304.023 306.549 303.389 305.775 303.389C305.001 303.389 304.374 304.023 304.374 304.806C304.374 305.588 305.001 306.222 305.775 306.222ZM317.451 304.806C317.451 305.588 316.823 306.222 316.049 306.222C315.276 306.222 314.648 305.588 314.648 304.806C314.648 304.023 315.276 303.389 316.049 303.389C316.823 303.389 317.451 304.023 317.451 304.806ZM326.324 306.222C327.098 306.222 327.725 305.588 327.725 304.806C327.725 304.023 327.098 303.389 326.324 303.389C325.55 303.389 324.923 304.023 324.923 304.806C324.923 305.588 325.55 306.222 326.324 306.222ZM338 304.806C338 305.588 337.373 306.222 336.599 306.222C335.825 306.222 335.198 305.588 335.198 304.806C335.198 304.023 335.825 303.389 336.599 303.389C337.373 303.389 338 304.023 338 304.806ZM255.802 315.194C255.802 315.977 255.175 316.611 254.401 316.611C253.627 316.611 253 315.977 253 315.194C253 314.412 253.627 313.778 254.401 313.778C255.175 313.778 255.802 314.412 255.802 315.194ZM266.077 315.194C266.077 315.977 265.45 316.611 264.676 316.611C263.902 316.611 263.275 315.977 263.275 315.194C263.275 314.412 263.902 313.778 264.676 313.778C265.45 313.778 266.077 314.412 266.077 315.194ZM274.951 316.611C275.724 316.611 276.352 315.977 276.352 315.194C276.352 314.412 275.724 313.778 274.951 313.778C274.177 313.778 273.549 314.412 273.549 315.194C273.549 315.977 274.177 316.611 274.951 316.611ZM286.626 315.194C286.626 315.977 285.999 316.611 285.225 316.611C284.451 316.611 283.824 315.977 283.824 315.194C283.824 314.412 284.451 313.778 285.225 313.778C285.999 313.778 286.626 314.412 286.626 315.194ZM295.5 316.611C296.274 316.611 296.901 315.977 296.901 315.194C296.901 314.412 296.274 313.778 295.5 313.778C294.726 313.778 294.099 314.412 294.099 315.194C294.099 315.977 294.726 316.611 295.5 316.611ZM307.176 315.194C307.176 315.977 306.549 316.611 305.775 316.611C305.001 316.611 304.374 315.977 304.374 315.194C304.374 314.412 305.001 313.778 305.775 313.778C306.549 313.778 307.176 314.412 307.176 315.194ZM316.049 316.611C316.823 316.611 317.451 315.977 317.451 315.194C317.451 314.412 316.823 313.778 316.049 313.778C315.276 313.778 314.648 314.412 314.648 315.194C314.648 315.977 315.276 316.611 316.049 316.611ZM327.725 315.194C327.725 315.977 327.098 316.611 326.324 316.611C325.55 316.611 324.923 315.977 324.923 315.194C324.923 314.412 325.55 313.778 326.324 313.778C327.098 313.778 327.725 314.412 327.725 315.194ZM336.599 316.611C337.373 316.611 338 315.977 338 315.194C338 314.412 337.373 313.778 336.599 313.778C335.825 313.778 335.198 314.412 335.198 315.194C335.198 315.977 335.825 316.611 336.599 316.611ZM264.676 295.833C265.45 295.833 266.077 295.199 266.077 294.417C266.077 293.634 265.45 293 264.676 293C263.902 293 263.275 293.634 263.275 294.417C263.275 295.199 263.902 295.833 264.676 295.833ZM255.802 325.583C255.802 326.366 255.175 327 254.401 327C253.627 327 253 326.366 253 325.583C253 324.801 253.627 324.167 254.401 324.167C255.175 324.167 255.802 324.801 255.802 325.583ZM266.077 325.583C266.077 326.366 265.45 327 264.676 327C263.902 327 263.275 326.366 263.275 325.583C263.275 324.801 263.902 324.167 264.676 324.167C265.45 324.167 266.077 324.801 266.077 325.583ZM274.951 327C275.724 327 276.352 326.366 276.352 325.583C276.352 324.801 275.724 324.167 274.951 324.167C274.177 324.167 273.549 324.801 273.549 325.583C273.549 326.366 274.177 327 274.951 327ZM286.626 325.583C286.626 326.366 285.999 327 285.225 327C284.451 327 283.824 326.366 283.824 325.583C283.824 324.801 284.451 324.167 285.225 324.167C285.999 324.167 286.626 324.801 286.626 325.583ZM295.5 327C296.274 327 296.901 326.366 296.901 325.583C296.901 324.801 296.274 324.167 295.5 324.167C294.726 324.167 294.099 324.801 294.099 325.583C294.099 326.366 294.726 327 295.5 327ZM307.176 325.583C307.176 326.366 306.549 327 305.775 327C305.001 327 304.374 326.366 304.374 325.583C304.374 324.801 305.001 324.167 305.775 324.167C306.549 324.167 307.176 324.801 307.176 325.583ZM316.049 327C316.823 327 317.451 326.366 317.451 325.583C317.451 324.801 316.823 324.167 316.049 324.167C315.276 324.167 314.648 324.801 314.648 325.583C314.648 326.366 315.276 327 316.049 327ZM327.725 325.583C327.725 326.366 327.098 327 326.324 327C325.55 327 324.923 326.366 324.923 325.583C324.923 324.801 325.55 324.167 326.324 324.167C327.098 324.167 327.725 324.801 327.725 325.583ZM336.599 327C337.373 327 338 326.366 338 325.583C338 324.801 337.373 324.167 336.599 324.167C335.825 324.167 335.198 324.801 335.198 325.583C335.198 326.366 335.825 327 336.599 327ZM274.951 295.833C275.724 295.833 276.352 295.199 276.352 294.417C276.352 293.634 275.724 293 274.951 293C274.177 293 273.549 293.634 273.549 294.417C273.549 295.199 274.177 295.833 274.951 295.833ZM286.626 294.417C286.626 295.199 285.999 295.833 285.225 295.833C284.451 295.833 283.824 295.199 283.824 294.417C283.824 293.634 284.451 293 285.225 293C285.999 293 286.626 293.634 286.626 294.417ZM295.5 295.833C296.274 295.833 296.901 295.199 296.901 294.417C296.901 293.634 296.274 293 295.5 293C294.726 293 294.099 293.634 294.099 294.417C294.099 295.199 294.726 295.833 295.5 295.833ZM307.176 294.417C307.176 295.199 306.549 295.833 305.775 295.833C305.001 295.833 304.374 295.199 304.374 294.417C304.374 293.634 305.001 293 305.775 293C306.549 293 307.176 293.634 307.176 294.417ZM316.049 295.833C316.823 295.833 317.451 295.199 317.451 294.417C317.451 293.634 316.823 293 316.049 293C315.276 293 314.648 293.634 314.648 294.417C314.648 295.199 315.276 295.833 316.049 295.833ZM327.725 294.417C327.725 295.199 327.098 295.833 326.324 295.833C325.55 295.833 324.923 295.199 324.923 294.417C324.923 293.634 325.55 293 326.324 293C327.098 293 327.725 293.634 327.725 294.417ZM336.599 295.833C337.373 295.833 338 295.199 338 294.417C338 293.634 337.373 293 336.599 293C335.825 293 335.198 293.634 335.198 294.417C335.198 295.199 335.825 295.833 336.599 295.833Z" fill="#CF6BCB"/>
<path opacity="0.15" fill-rule="evenodd" clip-rule="evenodd" d="M158 414V364H184.308L170.429 414H158ZM191.692 414V364H218L204.121 414H191.692Z" fill="url(#paint1_linear_0_69)"/>
<path fill-rule="evenodd" clip-rule="evenodd" d="M285 666.945C285 666.945 186.53 645.493 129.333 614.563C72.1361 583.634 0 601.468 0 601.468L0 666.945H285Z" fill="#F4F4FC"/>
<defs>
<linearGradient id="paint0_linear_0_69" x1="384.959" y1="255.362" x2="201.389" y2="384.844" gradientUnits="userSpaceOnUse">
<stop stop-color="#9975D0"/>
<stop offset="1" stop-color="#4A3FDB"/>
</linearGradient>
<linearGradient id="paint1_linear_0_69" x1="199.872" y1="422.658" x2="232.955" y2="378.213" gradientUnits="userSpaceOnUse">
<stop stop-color="#9975D0"/>
<stop offset="1" stop-color="#4A3FDB"/>
</linearGradient>
</defs>
</svg>
